<mxfile host="app.diagrams.net" agent="Mozilla/5.0 (Windows NT 10.0; Win64; x64) AppleWebKit/537.36 (KHTML, like Gecko) Chrome/131.0.0.0 Safari/537.36" version="25.0.1">
  <diagram name="Trang-1" id="l_TE8C0bcXNuovB6EugG">
    <mxGraphModel dx="867" dy="640" grid="0" gridSize="10" guides="1" tooltips="1" connect="1" arrows="1" fold="1" page="1" pageScale="1" pageWidth="827" pageHeight="1169" math="0" shadow="0">
      <root>
        <mxCell id="0" />
        <mxCell id="1" parent="0" />
        <mxCell id="p4werv_LVRO7LJJznYSE-14" value="" style="endArrow=none;html=1;rounded=0;fontSize=12;startSize=8;endSize=8;curved=1;" edge="1" parent="1">
          <mxGeometry width="50" height="50" relative="1" as="geometry">
            <mxPoint x="245" y="602" as="sourcePoint" />
            <mxPoint x="574" y="602" as="targetPoint" />
          </mxGeometry>
        </mxCell>
        <mxCell id="p4werv_LVRO7LJJznYSE-15" value="" style="rounded=0;whiteSpace=wrap;html=1;" vertex="1" parent="1">
          <mxGeometry x="306.5" y="442" width="23" height="160" as="geometry" />
        </mxCell>
        <mxCell id="p4werv_LVRO7LJJznYSE-16" value="" style="rounded=0;whiteSpace=wrap;html=1;" vertex="1" parent="1">
          <mxGeometry x="357" y="482" width="23" height="120" as="geometry" />
        </mxCell>
        <mxCell id="p4werv_LVRO7LJJznYSE-17" value="" style="rounded=0;whiteSpace=wrap;html=1;" vertex="1" parent="1">
          <mxGeometry x="411" y="405" width="23" height="197" as="geometry" />
        </mxCell>
        <mxCell id="p4werv_LVRO7LJJznYSE-18" value="" style="rounded=0;whiteSpace=wrap;html=1;" vertex="1" parent="1">
          <mxGeometry x="465.5" y="429" width="23" height="173" as="geometry" />
        </mxCell>
        <mxCell id="p4werv_LVRO7LJJznYSE-19" value="" style="endArrow=none;html=1;rounded=0;fontSize=12;startSize=8;endSize=8;curved=1;" edge="1" parent="1">
          <mxGeometry width="50" height="50" relative="1" as="geometry">
            <mxPoint x="247" y="599" as="sourcePoint" />
            <mxPoint x="247" y="398" as="targetPoint" />
          </mxGeometry>
        </mxCell>
        <mxCell id="p4werv_LVRO7LJJznYSE-20" value="gallons" style="text;html=1;align=center;verticalAlign=middle;whiteSpace=wrap;rounded=0;fontSize=16;" vertex="1" parent="1">
          <mxGeometry x="182" y="395" width="60" height="30" as="geometry" />
        </mxCell>
        <mxCell id="p4werv_LVRO7LJJznYSE-21" value="100" style="text;html=1;align=center;verticalAlign=middle;whiteSpace=wrap;rounded=0;fontSize=16;" vertex="1" parent="1">
          <mxGeometry x="202" y="428" width="34" height="30" as="geometry" />
        </mxCell>
        <mxCell id="p4werv_LVRO7LJJznYSE-22" value="80" style="text;html=1;align=center;verticalAlign=middle;whiteSpace=wrap;rounded=0;fontSize=16;" vertex="1" parent="1">
          <mxGeometry x="202" y="460" width="34" height="30" as="geometry" />
        </mxCell>
        <mxCell id="p4werv_LVRO7LJJznYSE-23" value="60" style="text;html=1;align=center;verticalAlign=middle;whiteSpace=wrap;rounded=0;fontSize=16;" vertex="1" parent="1">
          <mxGeometry x="202" y="490" width="34" height="30" as="geometry" />
        </mxCell>
        <mxCell id="p4werv_LVRO7LJJznYSE-24" value="40" style="text;html=1;align=center;verticalAlign=middle;whiteSpace=wrap;rounded=0;fontSize=16;" vertex="1" parent="1">
          <mxGeometry x="202" y="523" width="34" height="30" as="geometry" />
        </mxCell>
        <mxCell id="p4werv_LVRO7LJJznYSE-25" value="20" style="text;html=1;align=center;verticalAlign=middle;whiteSpace=wrap;rounded=0;fontSize=16;" vertex="1" parent="1">
          <mxGeometry x="202" y="553" width="34" height="30" as="geometry" />
        </mxCell>
        <mxCell id="p4werv_LVRO7LJJznYSE-26" value="0" style="text;html=1;align=center;verticalAlign=middle;whiteSpace=wrap;rounded=0;fontSize=16;" vertex="1" parent="1">
          <mxGeometry x="202" y="581" width="34" height="30" as="geometry" />
        </mxCell>
        <mxCell id="p4werv_LVRO7LJJznYSE-27" value="0" style="text;html=1;align=center;verticalAlign=middle;whiteSpace=wrap;rounded=0;fontSize=16;" vertex="1" parent="1">
          <mxGeometry x="230" y="611" width="34" height="30" as="geometry" />
        </mxCell>
        <mxCell id="p4werv_LVRO7LJJznYSE-28" value="1" style="text;html=1;align=center;verticalAlign=middle;whiteSpace=wrap;rounded=0;fontSize=16;" vertex="1" parent="1">
          <mxGeometry x="261" y="611" width="34" height="30" as="geometry" />
        </mxCell>
        <mxCell id="p4werv_LVRO7LJJznYSE-29" value="2" style="text;html=1;align=center;verticalAlign=middle;whiteSpace=wrap;rounded=0;fontSize=16;" vertex="1" parent="1">
          <mxGeometry x="295.5" y="611" width="34" height="30" as="geometry" />
        </mxCell>
        <mxCell id="p4werv_LVRO7LJJznYSE-30" value="3" style="text;html=1;align=center;verticalAlign=middle;whiteSpace=wrap;rounded=0;fontSize=16;" vertex="1" parent="1">
          <mxGeometry x="329.5" y="611" width="34" height="30" as="geometry" />
        </mxCell>
        <mxCell id="p4werv_LVRO7LJJznYSE-31" value="4" style="text;html=1;align=center;verticalAlign=middle;whiteSpace=wrap;rounded=0;fontSize=16;" vertex="1" parent="1">
          <mxGeometry x="363.5" y="611" width="34" height="30" as="geometry" />
        </mxCell>
        <mxCell id="p4werv_LVRO7LJJznYSE-32" value="5" style="text;html=1;align=center;verticalAlign=middle;whiteSpace=wrap;rounded=0;fontSize=16;" vertex="1" parent="1">
          <mxGeometry x="400" y="611" width="34" height="30" as="geometry" />
        </mxCell>
        <mxCell id="p4werv_LVRO7LJJznYSE-34" value="" style="group" vertex="1" connectable="0" parent="1">
          <mxGeometry x="40" y="40" width="209" height="212" as="geometry" />
        </mxCell>
        <mxCell id="p4werv_LVRO7LJJznYSE-11" value="" style="ellipse;whiteSpace=wrap;html=1;aspect=fixed;" vertex="1" parent="p4werv_LVRO7LJJznYSE-34">
          <mxGeometry y="2" width="209" height="209" as="geometry" />
        </mxCell>
        <mxCell id="p4werv_LVRO7LJJznYSE-12" value="" style="verticalLabelPosition=bottom;verticalAlign=top;html=1;shape=mxgraph.basic.pie;startAngle=0.2;endAngle=0.9;" vertex="1" parent="p4werv_LVRO7LJJznYSE-34">
          <mxGeometry width="208" height="212" as="geometry" />
        </mxCell>
        <mxCell id="p4werv_LVRO7LJJznYSE-13" value="" style="ellipse;whiteSpace=wrap;html=1;aspect=fixed;" vertex="1" parent="p4werv_LVRO7LJJznYSE-34">
          <mxGeometry x="21.5" y="23" width="166" height="166" as="geometry" />
        </mxCell>
        <mxCell id="p4werv_LVRO7LJJznYSE-62" value="Today usage/target" style="text;html=1;align=center;verticalAlign=middle;whiteSpace=wrap;rounded=0;fontSize=16;" vertex="1" parent="p4werv_LVRO7LJJznYSE-34">
          <mxGeometry x="79" y="91.5" width="60" height="30" as="geometry" />
        </mxCell>
        <mxCell id="p4werv_LVRO7LJJznYSE-36" value="" style="group" vertex="1" connectable="0" parent="1">
          <mxGeometry x="291" y="40" width="225" height="225" as="geometry" />
        </mxCell>
        <mxCell id="p4werv_LVRO7LJJznYSE-37" value="" style="ellipse;whiteSpace=wrap;html=1;aspect=fixed;" vertex="1" parent="p4werv_LVRO7LJJznYSE-36">
          <mxGeometry y="2" width="209" height="209" as="geometry" />
        </mxCell>
        <mxCell id="p4werv_LVRO7LJJznYSE-38" value="" style="verticalLabelPosition=bottom;verticalAlign=top;html=1;shape=mxgraph.basic.pie;startAngle=0.0031826745504863986;endAngle=0.48276820027307826;" vertex="1" parent="p4werv_LVRO7LJJznYSE-36">
          <mxGeometry width="208" height="212" as="geometry" />
        </mxCell>
        <mxCell id="p4werv_LVRO7LJJznYSE-60" value="Your usage" style="text;html=1;align=center;verticalAlign=middle;whiteSpace=wrap;rounded=0;fontSize=16;" vertex="1" parent="p4werv_LVRO7LJJznYSE-36">
          <mxGeometry x="119" y="103" width="60" height="16" as="geometry" />
        </mxCell>
        <mxCell id="p4werv_LVRO7LJJznYSE-61" value="World average usage" style="text;html=1;align=center;verticalAlign=middle;whiteSpace=wrap;rounded=0;fontSize=16;" vertex="1" parent="p4werv_LVRO7LJJznYSE-36">
          <mxGeometry x="27" y="91" width="60" height="30" as="geometry" />
        </mxCell>
        <mxCell id="p4werv_LVRO7LJJznYSE-63" value="" style="ellipse;whiteSpace=wrap;html=1;aspect=fixed;" vertex="1" parent="1">
          <mxGeometry x="542" y="38" width="209" height="209" as="geometry" />
        </mxCell>
        <mxCell id="p4werv_LVRO7LJJznYSE-64" value="" style="verticalLabelPosition=bottom;verticalAlign=top;html=1;shape=mxgraph.basic.pie;startAngle=0.0031826745504863986;endAngle=0.125;" vertex="1" parent="1">
          <mxGeometry x="542" y="36.5" width="208" height="212" as="geometry" />
        </mxCell>
        <mxCell id="p4werv_LVRO7LJJznYSE-65" value="" style="verticalLabelPosition=bottom;verticalAlign=top;html=1;shape=mxgraph.basic.pie;startAngle=0.125;endAngle=0.3000549146716032;" vertex="1" parent="1">
          <mxGeometry x="542" y="38" width="208" height="212" as="geometry" />
        </mxCell>
        <mxCell id="p4werv_LVRO7LJJznYSE-66" value="" style="verticalLabelPosition=bottom;verticalAlign=top;html=1;shape=mxgraph.basic.pie;startAngle=0.30009523768647184;endAngle=0.5923103085221648;" vertex="1" parent="1">
          <mxGeometry x="542.5" y="38" width="208" height="212" as="geometry" />
        </mxCell>
        <mxCell id="p4werv_LVRO7LJJznYSE-72" value="Activity 1" style="text;html=1;align=center;verticalAlign=middle;whiteSpace=wrap;rounded=0;fontSize=16;" vertex="1" parent="1">
          <mxGeometry x="648" y="56" width="60" height="30" as="geometry" />
        </mxCell>
        <mxCell id="p4werv_LVRO7LJJznYSE-73" value="Activity 2" style="text;html=1;align=center;verticalAlign=middle;whiteSpace=wrap;rounded=0;fontSize=16;" vertex="1" parent="1">
          <mxGeometry x="678" y="114" width="60" height="30" as="geometry" />
        </mxCell>
        <mxCell id="p4werv_LVRO7LJJznYSE-74" value="Activity 3" style="text;html=1;align=center;verticalAlign=middle;whiteSpace=wrap;rounded=0;fontSize=16;" vertex="1" parent="1">
          <mxGeometry x="640" y="187" width="60" height="30" as="geometry" />
        </mxCell>
        <mxCell id="p4werv_LVRO7LJJznYSE-75" value="Activity 4" style="text;html=1;align=center;verticalAlign=middle;whiteSpace=wrap;rounded=0;fontSize=16;" vertex="1" parent="1">
          <mxGeometry x="569" y="110" width="60" height="30" as="geometry" />
        </mxCell>
        <mxCell id="p4werv_LVRO7LJJznYSE-87" value="hours" style="text;html=1;align=center;verticalAlign=middle;whiteSpace=wrap;rounded=0;fontSize=16;" vertex="1" parent="1">
          <mxGeometry x="560" y="613" width="60" height="30" as="geometry" />
        </mxCell>
      </root>
    </mxGraphModel>
  </diagram>
</mxfile>
